<svg xmlns="http://www.w3.org/2000/svg" width="262" height="263" viewBox="0 0 262 263" version="1.1"><path d="M 109.790 168.215 C 75.672 213.026, 131.460 281.716, 180.236 254.953 C 181.191 254.429, 182.584 254, 183.331 254 C 184.797 254, 194.666 247.713, 199.423 243.748 L 202.346 241.312 190.423 239.523 C 168.957 236.302, 154.727 231.556, 144.750 224.289 C 140.645 221.300, 137.775 217.507, 141.236 219.646 C 141.915 220.066, 139.328 217.444, 135.486 213.818 C 124.160 203.133, 118.427 191.447, 115.628 173.344 C 114.261 164.504, 113.275 163.637, 109.790 168.215 M 63.802 168.531 C 63.510 168.824, 62.248 169.260, 60.998 169.500 C 59.749 169.741, 58 170.576, 57.113 171.355 C 53.800 174.265, 35.707 182.047, 29 183.445 C 27.625 183.732, 24.025 184.722, 21 185.645 C 17.975 186.568, 11.906 187.588, 7.514 187.912 L -0.472 188.500 4.869 192.412 C 10.463 196.510, 19.549 200.270, 26.750 201.469 C 29.275 201.889, 31 202.718, 31 203.511 C 31 204.246, 32.191 206.263, 33.648 207.993 L 36.295 211.140 41.398 206.256 C 44.204 203.569, 48.473 200.117, 50.884 198.583 C 64.881 189.680, 78.083 170, 70.059 170 C 68.441 170, 66.840 169.550, 66.500 169 C 65.824 167.906, 64.634 167.699, 63.802 168.531" stroke="none" fill="#f5a335" fill-rule="evenodd"/><path d="M 172 25.227 C 166.447 27.974, 159.820 34.472, 157.064 39.874 C 154.505 44.890, 151.743 55.189, 152.754 55.944 C 153.164 56.250, 154.400 58.289, 155.500 60.476 C 160.174 69.766, 176.286 81.747, 186.500 83.526 C 188.700 83.909, 191.012 84.865, 191.638 85.649 C 192.508 86.740, 192.661 85.595, 192.289 80.788 C 191.099 65.407, 206.310 58.965, 243.750 58.995 C 253.707 59.003, 252.326 56.860, 240.861 54.512 C 221.421 50.530, 218.102 48.847, 213.811 40.797 C 205.756 25.683, 185.973 18.317, 172 25.227 M 187.589 39.855 C 181.641 43.347, 181.900 48.403, 188.206 51.942 C 194.203 55.308, 202.293 47.548, 198.327 42.235 C 195.283 38.159, 194.156 38.394, 193.811 43.178 C 193.583 46.334, 193.032 47.571, 191.747 47.815 C 189.155 48.307, 188.492 45.288, 190.342 41.409 C 192.159 37.599, 191.788 37.390, 187.589 39.855 M 129.250 77.706 C 128.012 77.944, 127 78.508, 127 78.958 C 127 79.409, 126.438 79.757, 125.750 79.731 C 121.702 79.581, 120.493 80.025, 122 81.110 C 123.244 82.004, 123.185 82.086, 121.652 81.588 C 106.022 76.509, 73.897 126.004, 75.141 153.251 C 75.382 158.549, 75.209 158.805, 69.075 162.203 C 54.379 170.345, 91.448 164.379, 110.477 155.540 C 156.521 134.152, 172.128 69.447, 129.250 77.706 M 109.518 166.566 C 105.736 171.523, 106.937 171.906, 110.880 167 C 112.648 164.800, 113.676 163, 113.166 163 C 112.655 163, 111.014 164.605, 109.518 166.566 M 118.559 187 C 121.001 197.714, 134.782 215.766, 144.750 221.307 C 149.719 224.068, 148.617 222.604, 143.028 219.018 C 133.071 212.629, 126.991 204.487, 119.115 187 L 117.989 184.500 118.559 187" stroke="none" fill="#585757" fill-rule="evenodd"/><path d="M 114.655 1.597 C 37.573 15.524, -13.497 106.390, 14.809 179.250 C 17.677 186.631, 18.491 187.075, 24.532 184.551 C 28.592 182.855, 28.627 182.643, 25.966 175.761 C -0.604 107.046, 57.132 17.333, 130.500 13.333 C 144.648 12.562, 165.100 15.390, 168.918 18.646 C 169.148 18.842, 166.193 22.264, 162.353 26.251 C 154.222 34.692, 150.504 40.945, 145.970 53.802 C 141.736 65.808, 137.528 69.920, 126.781 72.554 C 104.640 77.980, 87.657 95.145, 77.576 122.284 C 74.257 131.221, 73.231 135.356, 69.836 153.500 C 68.678 159.688, 65.878 164, 63.017 164 C 62.118 164, 60.509 164.647, 59.441 165.438 C 56.758 167.426, 60.266 170.463, 63.343 168.816 C 64.624 168.131, 65.559 168.159, 66.307 168.907 C 66.908 169.508, 68.660 170, 70.200 170 C 72.152 170, 73 170.507, 73 171.674 C 73 173.096, 73.349 173.021, 75.314 171.174 C 76.751 169.825, 78.932 168.993, 81.064 168.983 C 109.432 168.839, 147.152 142.785, 159.218 115 C 167.700 95.467, 160.228 75, 144.614 75 L 141.651 75 143.709 72.750 C 146.893 69.268, 148.811 64.851, 151.495 54.821 C 161.444 17.645, 197.733 9.968, 214.388 41.517 C 218.005 48.367, 222.113 50.423, 238.710 53.684 C 253.290 56.548, 253.710 58.535, 239.910 59.354 C 206.987 61.309, 203.870 61.992, 196.759 68.804 C 191.604 73.743, 191.422 76.213, 194.935 93.500 C 200.688 121.815, 198.315 137.005, 184.938 157.497 C 178.779 166.932, 167.063 174.675, 157.279 175.778 L 152.918 176.269 153.554 180.885 C 155.998 198.600, 163.846 213.516, 177.404 226.206 L 183.500 231.913 178.167 231.956 C 170.257 232.021, 157.583 228.434, 148.250 223.490 C 139.081 218.633, 137.485 218.998, 144.750 224.289 C 154.998 231.753, 169.809 236.595, 191 239.409 C 197.875 240.322, 206.135 241.531, 209.356 242.095 C 212.576 242.660, 215.425 242.908, 215.687 242.647 C 216.718 241.615, 213.803 237.989, 211.471 237.403 C 207.751 236.470, 208.271 235.565, 217.588 226.745 C 258.250 188.255, 272.940 121.768, 250.989 75.573 C 245.220 63.433, 245.066 61.640, 249.758 61.187 C 259.136 60.280, 244.901 51.403, 228 47.618 C 222.616 46.412, 222.428 46.251, 219.079 39.943 C 204.275 12.061, 155.623 -5.805, 114.655 1.597 M 186.250 40.989 C 182.596 43.217, 182.403 43.944, 184.425 47.855 C 188.139 55.036, 199 52.934, 199 45.034 C 199 39.374, 195.659 38.642, 194.277 43.998 C 193.293 47.810, 190.408 49.227, 189.333 46.426 C 188.970 45.480, 189.157 43.421, 189.750 41.853 C 191.024 38.475, 190.561 38.361, 186.250 40.989 M 222.134 68.520 C 219.732 69.893, 216.132 72.304, 214.134 73.877 C 212.135 75.451, 208.173 77.912, 205.329 79.346 L 200.159 81.953 202.086 85.941 C 204.544 91.030, 206.762 100.594, 207.617 109.793 C 208.274 116.854, 208.344 117, 211.078 117 C 220.424 117, 239.964 110.012, 244.436 105.070 C 246.810 102.448, 243.515 91.205, 235.938 76.069 C 230.234 64.676, 229.531 64.291, 222.134 68.520 M 132.500 77.083 C 111.071 79.937, 86.907 103.116, 79.145 128.263 C 76.603 136.498, 73.700 152.706, 74.528 154.045 C 75.771 156.056, 73.801 158.793, 68.732 162.093 L 63.500 165.500 71.500 165.784 C 99.956 166.793, 134.009 146.755, 146.757 121.500 C 161.495 92.302, 155.622 74.003, 132.500 77.083 M 204.015 133.134 C 203.985 138.358, 196.262 151.554, 188.206 160.149 C 179.507 169.430, 182.840 168.796, 192.513 159.329 C 200.134 151.870, 207.378 135.783, 204.886 131.850 C 204.286 130.903, 204.026 131.285, 204.015 133.134 M 41.548 205.952 L 36.670 210.903 39.253 214.806 C 59.635 245.606, 114.694 269.019, 150.500 262.113 L 154.500 261.342 150 260.159 C 147.525 259.508, 143.700 258.490, 141.500 257.896 C 139.300 257.301, 134.590 255.282, 131.033 253.408 C 127.476 251.533, 123.408 250, 121.993 250 C 102.860 250, 67.173 228.599, 53.306 208.810 C 46.828 199.565, 47.643 199.763, 41.548 205.952" stroke="none" fill="#f5e7d0" fill-rule="evenodd"/><path d="M 120.713 14.091 C 62.983 22.537, 16.336 84.538, 20.341 147.500 C 21.404 164.200, 26.430 181.612, 30.364 182.222 C 34.796 182.908, 57.847 172.514, 58.115 169.708 C 58.179 169.044, 58.291 167.837, 58.365 167.027 C 58.573 164.759, 63.860 163.208, 65.153 165.036 C 66.005 166.240, 66.089 166.191, 65.628 164.757 C 65.310 163.766, 65.850 162.256, 66.880 161.257 C 67.877 160.291, 69.202 156.800, 69.825 153.500 C 70.449 150.200, 71.630 144.028, 72.450 139.784 C 79.122 105.272, 100.322 79.038, 126.781 72.554 C 137.537 69.918, 141.741 65.806, 145.954 53.802 C 150.251 41.559, 155.484 32.842, 162.925 25.531 C 170.260 18.325, 170.220 18.749, 163.750 16.712 C 152.698 13.232, 134.257 12.109, 120.713 14.091 M 151 56.494 C 151 59.216, 146.836 69.042, 144.511 71.805 L 142.177 74.578 144.338 74.807 C 151.495 75.566, 151.180 75.406, 157.194 81.337 C 159.334 83.447, 161.345 86.477, 161.664 88.070 C 161.983 89.664, 162.655 90.713, 163.158 90.402 C 164.233 89.738, 163.292 101.559, 161.797 107.500 C 154.558 136.270, 118.487 164.902, 84.861 168.569 C 76.476 169.484, 75.552 170.064, 70.923 177.322 C 68.756 180.720, 66.199 184.621, 65.241 185.992 C 62.878 189.374, 54.117 197.710, 50.813 199.721 L 48.127 201.356 53.230 208.739 C 65.416 226.367, 89.794 242.377, 113.821 248.533 C 123.438 250.996, 124.223 250.294, 118.212 244.603 C 97.463 224.959, 93.516 188.120, 109.815 166.250 C 111.969 163.360, 115.063 161.470, 113.500 164 C 113.160 164.550, 113.303 165, 113.817 165 C 114.331 165, 115.525 169.162, 116.470 174.250 C 120.451 195.678, 129.774 210.986, 144.250 219.863 C 146.313 221.128, 148 222.603, 148 223.141 C 148 223.678, 148.518 223.798, 149.152 223.406 C 149.785 223.015, 150.910 223.524, 151.652 224.538 C 152.393 225.553, 153 226.039, 153 225.620 C 153 225.200, 153.644 225.501, 154.431 226.289 C 156.464 228.321, 171.935 232.008, 178.214 231.956 L 183.500 231.913 177.404 226.206 C 163.846 213.516, 155.998 198.600, 153.554 180.885 L 152.918 176.269 157.279 175.778 C 185.229 172.627, 203.034 136.616, 195.836 97.794 C 194.642 91.356, 193.338 86.291, 192.938 86.539 C 192.537 86.786, 191.976 86.380, 191.690 85.636 C 191.405 84.892, 189.251 83.976, 186.904 83.601 C 176.409 81.922, 159.729 69.528, 155.408 60.196 C 153.458 55.986, 151 53.922, 151 56.494 M 222.134 68.520 C 219.732 69.893, 216.132 72.304, 214.134 73.877 C 212.135 75.451, 208.173 77.912, 205.329 79.346 L 200.159 81.953 202.086 85.941 C 204.544 91.030, 206.762 100.594, 207.617 109.793 C 208.274 116.854, 208.344 117, 211.078 117 C 220.424 117, 239.964 110.012, 244.436 105.070 C 246.810 102.448, 243.515 91.205, 235.938 76.069 C 230.234 64.676, 229.531 64.291, 222.134 68.520 M 204.015 133.134 C 203.985 138.358, 196.262 151.554, 188.206 160.149 C 179.507 169.430, 182.840 168.796, 192.513 159.329 C 200.134 151.870, 207.378 135.783, 204.886 131.850 C 204.286 130.903, 204.026 131.285, 204.015 133.134" stroke="none" fill="#3994a0" fill-rule="evenodd"/></svg>