<svg xmlns="http://www.w3.org/2000/svg" width="262" height="263" viewBox="0 0 262 263" version="1.1"><path d="M 114.655 1.597 C 99.066 4.413, 81.216 11.759, 67.417 21.036 C 58.354 27.130, 42.883 42.232, 35.186 52.500 C 32.300 56.350, 26.342 66.700, 21.946 75.500 C 15.683 88.036, 13.310 94.060, 10.984 103.326 C 7.517 117.137, 6.076 132.824, 7.110 145.500 C 7.926 155.517, 11.872 172.662, 14.976 179.678 C 18.421 187.468, 17.907 187.985, 6.668 188.027 L -0.500 188.054 3 191.024 C 8.026 195.290, 15.513 198.783, 23.797 200.727 C 28.133 201.744, 31 202.930, 31 203.706 C 31 204.414, 32.478 206.683, 34.284 208.747 C 36.090 210.811, 38.886 214.300, 40.497 216.500 C 56.108 237.814, 86.488 255.652, 117.044 261.449 C 134.961 264.848, 163.484 261.988, 180.500 255.088 C 187.669 252.181, 190.314 250.668, 196.463 245.955 L 203.354 240.673 209.283 241.898 C 212.543 242.571, 215.425 242.908, 215.687 242.647 C 216.718 241.615, 213.803 237.989, 211.471 237.403 C 210.112 237.062, 209 236.354, 209 235.829 C 209 235.304, 212.864 231.216, 217.588 226.745 C 228.533 216.385, 237.639 203.697, 245.036 188.500 C 252.057 174.077, 255.391 164.394, 258.504 149.379 C 261.687 134.030, 262.441 122.523, 261.049 110.500 C 259.464 96.798, 256.985 88.193, 250.989 75.573 C 248.182 69.666, 246.027 64.084, 246.201 63.167 C 246.402 62.104, 247.692 61.386, 249.758 61.187 C 253.353 60.839, 253.930 59.131, 251.250 56.764 C 248.894 54.683, 234.812 49.144, 228 47.618 C 222.616 46.412, 222.428 46.251, 219.079 39.943 C 215.173 32.587, 205.257 22.235, 196.823 16.710 C 190.352 12.470, 176.413 6.903, 165.159 4.064 C 148.396 -0.165, 129.514 -1.088, 114.655 1.597 M 120.713 14.091 C 93.865 18.019, 64.910 36.577, 46.149 61.880 C 30.481 83.011, 23.582 100.829, 20.933 127 C 19.077 145.329, 20.567 160.258, 25.696 174.740 C 27.713 180.434, 28.008 182.286, 27.075 183.409 C 26.051 184.643, 26.489 184.657, 30.300 183.510 C 41.851 180.034, 57.925 172.548, 59.576 169.876 C 59.950 169.271, 59.636 168.368, 58.878 167.869 C 57.754 167.129, 57.857 166.689, 59.441 165.481 C 60.509 164.666, 62.118 164, 63.017 164 C 65.878 164, 68.678 159.688, 69.836 153.500 C 73.231 135.356, 74.257 131.221, 77.576 122.284 C 82.037 110.274, 85.561 103.941, 92.983 94.603 C 101.799 83.508, 113.664 75.768, 126.781 72.554 C 137.537 69.918, 141.741 65.806, 145.954 53.802 C 150.251 41.559, 155.484 32.842, 162.925 25.531 C 166.266 22.249, 169 19.293, 169 18.964 C 169 17.954, 158.892 15.116, 151.500 14.049 C 143.309 12.868, 128.939 12.887, 120.713 14.091 M 178.500 22.887 C 173.322 23.839, 168.852 26.236, 163.885 30.723 C 158.239 35.824, 155.581 40.897, 151.951 53.500 C 148.506 65.464, 146.863 69.300, 143.709 72.750 L 141.651 75 144.614 75 C 149.337 75, 156.165 79.057, 159.487 83.836 C 162.334 87.933, 162.499 88.705, 162.487 97.836 C 162.476 106.526, 162.146 108.256, 159.218 115 C 155.258 124.119, 141.103 142.755, 134.193 147.947 C 129.367 151.573, 116.210 158.391, 104.266 163.455 C 97.329 166.396, 86.457 168.956, 80.793 168.983 C 76.693 169.002, 76.175 169.518, 66.991 182.740 C 62.068 189.827, 50.991 199.883, 48 199.981 C 47.175 200.008, 45.825 200.503, 45 201.081 C 43.809 201.914, 43.942 202.007, 45.643 201.532 C 47.443 201.029, 48.667 202.190, 53.283 208.777 C 60.443 218.995, 70.225 227.873, 81.912 234.761 C 96.559 243.392, 116.087 250.630, 122.529 249.814 C 124.824 249.524, 124.610 249.191, 119.684 245.393 C 100.533 230.629, 94.141 197.402, 106.124 174.918 C 107.808 171.759, 110.239 168.184, 111.527 166.975 L 113.867 164.776 114.491 168.638 C 118.092 190.933, 122.730 201.572, 133.579 212.421 C 145.177 224.019, 163.565 232.076, 178.167 231.956 L 183.500 231.913 177.404 226.206 C 163.846 213.516, 155.998 198.600, 153.554 180.885 L 152.918 176.269 157.279 175.778 C 161.728 175.276, 168.188 172.431, 175.826 167.610 C 183.342 162.865, 194.551 142.912, 197.023 129.877 C 198.786 120.580, 198.136 109.255, 194.935 93.500 C 193.215 85.040, 192.133 77.168, 192.452 75.444 C 193.085 72.026, 198.743 66.105, 203.822 63.547 C 207.136 61.878, 217.261 60.700, 239.808 59.360 C 253.990 58.517, 253.363 57.352, 236.500 53.210 C 218.869 48.878, 217.646 48.223, 214.110 41.218 C 207.354 27.835, 192.677 20.279, 178.500 22.887 M 186.153 41.048 C 183.295 42.790, 182.899 43.485, 183.444 45.794 C 184.212 49.047, 188.684 52.988, 191.614 52.995 C 196.819 53.007, 201.185 44.059, 197.476 40.980 C 195.607 39.429, 195.408 39.616, 194.277 43.998 C 193.293 47.810, 190.408 49.227, 189.333 46.426 C 188.970 45.480, 189.157 43.421, 189.750 41.853 C 191.030 38.461, 190.566 38.357, 186.153 41.048 M 222.134 68.520 C 219.732 69.893, 216.132 72.304, 214.134 73.877 C 212.135 75.451, 208.173 77.912, 205.329 79.346 L 200.159 81.953 202.086 85.941 C 204.544 91.030, 206.762 100.594, 207.617 109.793 C 208.274 116.854, 208.344 117, 211.078 117 C 220.424 117, 239.964 110.012, 244.436 105.070 C 246.199 103.122, 246.174 102.803, 243.617 94.599 C 242.166 89.946, 238.710 81.607, 235.938 76.069 C 230.234 64.676, 229.531 64.291, 222.134 68.520 M 132.500 77.080 C 125.837 77.971, 116.584 81.849, 109.264 86.820 C 102.898 91.144, 92.398 101.942, 89.980 106.654 C 89.176 108.219, 87.061 111.827, 85.279 114.672 C 79.520 123.864, 73.490 146.678, 74.714 154.646 C 75.155 157.523, 74.759 158.079, 70.098 161.130 C 67.294 162.966, 65 164.873, 65 165.368 C 65 165.875, 69.249 166.037, 74.750 165.738 C 86.722 165.089, 98.305 161.801, 112.298 155.082 C 120.853 150.974, 123.883 148.836, 131.068 141.842 C 141.081 132.093, 146.620 123.365, 151.554 109.561 C 156.130 96.756, 156.239 90.213, 151.981 83.785 C 147.735 77.375, 142.856 75.696, 132.500 77.080 M 204.015 133.134 C 203.985 138.358, 196.262 151.554, 188.206 160.149 C 182.214 166.541, 181.249 167.940, 183.864 166.435 C 189.818 163.011, 197.669 154.422, 200.872 147.829 C 204.432 140.500, 206.117 133.793, 204.886 131.850 C 204.286 130.903, 204.026 131.285, 204.015 133.134 M 63.813 169.683 C 64.534 169.972, 65.397 169.936, 65.729 169.604 C 66.061 169.272, 65.471 169.036, 64.417 169.079 C 63.252 169.127, 63.015 169.364, 63.813 169.683" stroke="none" fill="#f5e7d0" fill-rule="evenodd"/><path d="M 120.713 14.091 C 93.865 18.019, 64.910 36.577, 46.149 61.880 C 30.481 83.011, 23.582 100.829, 20.933 127 C 19.077 145.329, 20.567 160.258, 25.696 174.740 C 27.713 180.434, 28.008 182.286, 27.075 183.409 C 26.051 184.643, 26.489 184.657, 30.300 183.510 C 41.851 180.034, 57.925 172.548, 59.576 169.876 C 59.950 169.271, 59.636 168.368, 58.878 167.869 C 57.754 167.129, 57.857 166.689, 59.441 165.481 C 60.509 164.666, 62.118 164, 63.017 164 C 65.878 164, 68.678 159.688, 69.836 153.500 C 73.231 135.356, 74.257 131.221, 77.576 122.284 C 82.037 110.274, 85.561 103.941, 92.983 94.603 C 101.799 83.508, 113.664 75.768, 126.781 72.554 C 137.537 69.918, 141.741 65.806, 145.954 53.802 C 150.251 41.559, 155.484 32.842, 162.925 25.531 C 166.266 22.249, 169 19.293, 169 18.964 C 169 17.954, 158.892 15.116, 151.500 14.049 C 143.309 12.868, 128.939 12.887, 120.713 14.091 M 178.500 22.887 C 173.322 23.839, 168.852 26.236, 163.885 30.723 C 158.239 35.824, 155.581 40.897, 151.951 53.500 C 148.506 65.464, 146.863 69.300, 143.709 72.750 L 141.651 75 144.614 75 C 149.337 75, 156.165 79.057, 159.487 83.836 C 162.334 87.933, 162.499 88.705, 162.487 97.836 C 162.476 106.526, 162.146 108.256, 159.218 115 C 155.258 124.119, 141.103 142.755, 134.193 147.947 C 129.367 151.573, 116.210 158.391, 104.266 163.455 C 97.329 166.396, 86.457 168.956, 80.793 168.983 C 76.693 169.002, 76.175 169.518, 66.991 182.740 C 62.068 189.827, 50.991 199.883, 48 199.981 C 47.175 200.008, 45.825 200.503, 45 201.081 C 43.809 201.914, 43.942 202.007, 45.643 201.532 C 47.443 201.029, 48.667 202.190, 53.283 208.777 C 60.443 218.995, 70.225 227.873, 81.912 234.761 C 96.559 243.392, 116.087 250.630, 122.529 249.814 C 124.824 249.524, 124.610 249.191, 119.684 245.393 C 100.533 230.629, 94.141 197.402, 106.124 174.918 C 107.808 171.759, 110.239 168.184, 111.527 166.975 L 113.867 164.776 114.491 168.638 C 118.092 190.933, 122.730 201.572, 133.579 212.421 C 145.177 224.019, 163.565 232.076, 178.167 231.956 L 183.500 231.913 177.404 226.206 C 163.846 213.516, 155.998 198.600, 153.554 180.885 L 152.918 176.269 157.279 175.778 C 161.728 175.276, 168.188 172.431, 175.826 167.610 C 183.342 162.865, 194.551 142.912, 197.023 129.877 C 198.786 120.580, 198.136 109.255, 194.935 93.500 C 193.215 85.040, 192.133 77.168, 192.452 75.444 C 193.085 72.026, 198.743 66.105, 203.822 63.547 C 207.136 61.878, 217.261 60.700, 239.808 59.360 C 253.990 58.517, 253.363 57.352, 236.500 53.210 C 218.869 48.878, 217.646 48.223, 214.110 41.218 C 207.354 27.835, 192.677 20.279, 178.500 22.887 M 186.153 41.048 C 183.295 42.790, 182.899 43.485, 183.444 45.794 C 184.212 49.047, 188.684 52.988, 191.614 52.995 C 196.819 53.007, 201.185 44.059, 197.476 40.980 C 195.607 39.429, 195.408 39.616, 194.277 43.998 C 193.293 47.810, 190.408 49.227, 189.333 46.426 C 188.970 45.480, 189.157 43.421, 189.750 41.853 C 191.030 38.461, 190.566 38.357, 186.153 41.048 M 222.134 68.520 C 219.732 69.893, 216.132 72.304, 214.134 73.877 C 212.135 75.451, 208.173 77.912, 205.329 79.346 L 200.159 81.953 202.086 85.941 C 204.544 91.030, 206.762 100.594, 207.617 109.793 C 208.274 116.854, 208.344 117, 211.078 117 C 220.424 117, 239.964 110.012, 244.436 105.070 C 246.199 103.122, 246.174 102.803, 243.617 94.599 C 242.166 89.946, 238.710 81.607, 235.938 76.069 C 230.234 64.676, 229.531 64.291, 222.134 68.520 M 132.500 77.080 C 125.837 77.971, 116.584 81.849, 109.264 86.820 C 102.898 91.144, 92.398 101.942, 89.980 106.654 C 89.176 108.219, 87.061 111.827, 85.279 114.672 C 79.520 123.864, 73.490 146.678, 74.714 154.646 C 75.155 157.523, 74.759 158.079, 70.098 161.130 C 67.294 162.966, 65 164.873, 65 165.368 C 65 165.875, 69.249 166.037, 74.750 165.738 C 86.722 165.089, 98.305 161.801, 112.298 155.082 C 120.853 150.974, 123.883 148.836, 131.068 141.842 C 141.081 132.093, 146.620 123.365, 151.554 109.561 C 156.130 96.756, 156.239 90.213, 151.981 83.785 C 147.735 77.375, 142.856 75.696, 132.500 77.080 M 204.015 133.134 C 203.985 138.358, 196.262 151.554, 188.206 160.149 C 182.214 166.541, 181.249 167.940, 183.864 166.435 C 189.818 163.011, 197.669 154.422, 200.872 147.829 C 204.432 140.500, 206.117 133.793, 204.886 131.850 C 204.286 130.903, 204.026 131.285, 204.015 133.134 M 63.813 169.683 C 64.534 169.972, 65.397 169.936, 65.729 169.604 C 66.061 169.272, 65.471 169.036, 64.417 169.079 C 63.252 169.127, 63.015 169.364, 63.813 169.683" stroke="none" fill="#3994a0" fill-rule="evenodd"/></svg>